<svg xmlns="http://www.w3.org/2000/svg" viewBox="0 0 14 16">
<path
          fill="#FFF"
          fill-rule="evenodd"
          d="M12.364 2.998H2.088L1.816.687a.455.455 0 0 0-.478-.431L.431.303A.454.454 0 0 0 0 .78l1.256 10.893c.006.293.011 1.325.933 1.325h9.546a.455.455 0 0 0 .455-.454v-.881a.454.454 0 0 0-.455-.455H3.05l-.11-.937h8.606c.998 0 1.889-.724 1.989-1.616l.455-4.04c.1-.893-.628-1.617-1.626-1.617zm-.45 4.245c-.075.669-.317 1.212-1.066 1.212H2.727L2.3 4.812h8.821c.749 0 1.065.543.99 1.212l-.197 1.219zM2.416 15.79a1 1 0 1 0 0-2 1 1 0 0 0 0 2zm9.092 0a1 1 0 1 0 0-2 1 1 0 0 0 0 2z"
        ></path>
</svg>