<svg xmlns="http://www.w3.org/2000/svg" viewBox="0 0 32 32">
<path
          fill="#2a9bd3"
          d="M15.884 31.236l-.042.001a.888.888 0 0 1-.59-.224l-7.91-7.91a7.548 7.548 0 0 1-.498-.471 12.752 12.752 0 0 1-3.747-9.045C3.097 6.523 8.824.796 15.888.796s12.791 5.727 12.791 12.791c0 3.532-1.432 6.73-3.747 9.045-.196.196-.409.391-.613.578l-7.813 7.804a.886.886 0 0 1-.589.223l-.035-.001zm0-28.667C9.818 2.59 4.908 7.513 4.908 13.582c0 3.023 1.218 5.762 3.19 7.752l.461.435 7.316 7.316 7.2-7.2q.284-.249.551-.516a10.977 10.977 0 0 0 3.225-7.787c0-6.066-4.905-10.987-10.965-11.013z"
        ></path>
        <path
          fill="#2a9bd3"
          d="M15.884 18.524a5.707 5.707 0 0 1-4.07-1.732l-.001-.001a5.76 5.76 0 1 1 4.119 1.734h-.05zm-2.817-2.942a3.982 3.982 0 1 0 0-5.626c-.726.717-1.175 1.713-1.175 2.813s.449 2.096 1.175 2.813z"
        ></path>
</svg>