<svg xmlns="http://www.w3.org/2000/svg" viewBox="0 0 32 32">
<path
          fill="#27a9e1"
          d="M5.953 2.793s-.117 1.801.857 3.56c.361.255 10.458 6.218 10.458 6.218L5.953 2.794z"
        ></path>
        <path
          fill="#b8e5fa"
          d="M9.604.889s-.333 1.404.069 3.147c.254.307 7.801 8.116 7.801 8.116L9.604.889z"
        ></path>
        <path
          fill="#0089cf"
          d="M29.282 14.601l-4.861-.361s-.133-.001-.147-.226h-.002a2.652 2.652 0 0 0-2.978-2.357h-.003l-.011.001-.12.019-.004.001c-.432.075-1.812.374-3.038 1.285 0 0-.167.121-.421.33L2.665 6.043s3.254 8.665 12.207 11.98c-1.6 2.849-7.407 13.48-7.407 13.48l2.446-1.306s.775-2.853 1.884-4.957c.609-.936 1.211-.992 1.498-1.141.291-.151 3.707-.765 6.431-4.339.897-1.166 1.244-2.666 1.723-4.261.28-.061 3.008-.651 3.789-.718 1.068-.092 4.045-.181 4.045-.181z"
        ></path>
        <path
          fill="#0089cf"
          d="M7.392 17.849c-1.567-1.368-2.199-3.219-2.035-5.217-.232-.288-.45-.572-.654-.851-.484 2.903.555 4.854 2.176 6.269 1.538 1.342 3.635 1.85 5.466 1.577-1.674.109-3.563-.565-4.953-1.778z"
        ></path>
        <path
          fill="#0089cf"
          d="M12.345 19.628h.002zm-7.642-7.846c.204.279.421.563.654.851-.164 1.998.468 3.849 2.035 5.217 1.292 1.128 3.016 1.79 4.597 1.79.12 0 .238-.004.356-.011a6.554 6.554 0 0 1-.975.071c-1.568 0-3.22-.54-4.49-1.648-1.621-1.415-2.66-3.366-2.176-6.269z"
        ></path>
</svg>