<svg xmlns="http://www.w3.org/2000/svg" viewBox="0 0 23 32">
<path
          fill="#f07373"
          d="M9.859 29.375c-3.489-.771-6.362-3.097-7.187-5.551-.882-2.623-1.029-6.873-.238-9.318l-1.727.037.001.002.001.004.004.01.011.029.038.091c.039.09.086.191.142.3.155.304.349.627.586.955a7.477 7.477 0 0 0 2.711 2.318c.583.153.583.153 1.087-.188.187-.263.187-.263.224-.39.028-.094.041-.176.05-.28.01-.109.016-.238.022-.47.063-2.219.162-3.38.562-4.943a10.05 10.05 0 0 1 .814-2.185c1.433-2.723 4.843-6.053 6.699-7.021l-1.325-.962c-.064.382-.127.992-.131 1.722-.008 1.252.169 2.393.616 3.329.261.547.525.968 1.132 1.862l.23.339c.86 1.281 1.161 1.986 1.069 2.653l-.009.125c.069.517.069.517.781.906.451-.026.451-.026.578-.104.144-.093.144-.093.19-.136.041-.037.079-.077.123-.125.068-.076.153-.178.245-.295.22-.279.458-.615.677-.963.648-1.028 1.045-1.988 1.037-2.845l-.914.009-.706.581c.295.358.809 1.075 1.33 1.936.826 1.363 1.492 2.791 1.898 4.209 1.1 3.845.3 9.288-2.245 11.75a9.652 9.652 0 0 1-1.659 1.29 10.232 10.232 0 0 1-3.471 1.332c-.794.151-1.385.191-2.064.191h-.009a2.75 2.75 0 0 1-.373-.03 6.007 6.007 0 0 1-.585-.115 7.765 7.765 0 0 1-.536-.15l-.578 1.735a9.182 9.182 0 0 0 1.445.341c.221.031.43.048.627.048h.009a12.546 12.546 0 0 0 2.407-.224 12.011 12.011 0 0 0 4.088-1.572c.699-.431 1.358-.94 1.971-1.533 3.098-2.998 4-9.132 2.731-13.567-.455-1.591-1.188-3.161-2.092-4.653-.569-.939-1.134-1.727-1.482-2.15l-1.645-1.998.024 2.588c.004.412-.281 1.1-.756 1.853a9.64 9.64 0 0 1-.569.809 4.528 4.528 0 0 1-.158.195c.028-.027.028-.027.16-.113.122-.075.122-.075.57-.101.71.388.71.388.778.902h-.914l.906.125c.174-1.262-.261-2.281-1.362-3.922l-.235-.347c-.554-.817-.787-1.189-.995-1.624-.306-.642-.444-1.53-.438-2.53a10.566 10.566 0 0 1 .107-1.431L14.44.304l-1.628.85c-2.18 1.138-5.862 4.733-7.471 7.791a11.873 11.873 0 0 0-.967 2.583 19.2 19.2 0 0 0-.511 3.147c-.036.423-.061.839-.079 1.273-.011.281-.019.531-.029.924-.005.191-.01.298-.015.354a.403.403 0 0 1 .019-.077c.027-.099.027-.099.203-.346.492-.332.492-.332 1.112-.157a5.745 5.745 0 0 1-2.54-2.496 3.456 3.456 0 0 1-.093-.197l-.018-.044-.002-.006v.001l.001.002v.002l-.915-2.473-.812 2.51c-.917 2.836-.757 7.485.245 10.463 1.042 3.099 4.442 5.852 8.526 6.754l.395-1.785z"
        ></path>
</svg>