<svg xmlns="http://www.w3.org/2000/svg" viewBox="0 0 46 46">
<path
          fill="#ff7b52"
          d="M33.291 37.774c-.25.097-.504.175-.765.233-6.427 1.444-5.954-3.968-6-3.953 10.457-5.053 10.348-13.466 10-16.216-16.15-.041-22.943-7.063-22.943-7.063s-.176 1.733-2.933 4.996c-2.756 3.262-5.236 4.09-5.132 4.113.54 13.9 12.246 14.242 12.246 14.242-.762 4.662-4.357 4.33-4.357 4.33s-6.38.213-11.173-7.446c-.85-1.359-1.02-2.864-1.166-4.579-.217-2.542.14-4.643.312-7.2.271-4.064.96-6.269.96-6.269S7.13 0 21.4 0s17.828 12.508 17.828 12.508l-.035.074c.533.763.984 1.997 1.356 3.36A3.483 3.483 0 0 1 45 19.281v7.257a3.484 3.484 0 0 1-3.325 3.472c-2.009 4.537-6.657 12.185-15.241 12.457C26.023 44.485 24.269 46 22.168 46c-2.407 0-4.357-1.988-4.357-4.44 0-2.453 1.95-4.44 4.357-4.44 1.955 0 3.609 1.311 4.16 3.118 1.447.13 4.044-.094 6.963-2.464zM18.216 27.018s.99 3.08 3.705 3.08 3.807-1.875 3.807-2.906c.467-1.135 1.348-.541 1.482-.071.134.47-.763 4.67-5.24 4.67s-5.205-4.358-5.205-4.358.033-.97.702-.97c.669 0 .749.555.749.555zm10.052-2.332c.963 0 1.743-1.192 1.743-2.664 0-1.471-.78-2.664-1.743-2.664-.963 0-1.743 1.193-1.743 2.664 0 1.472.78 2.664 1.743 2.664zm-12.723 0c.962 0 1.743-1.192 1.743-2.664 0-1.471-.78-2.664-1.743-2.664-.963 0-1.743 1.193-1.743 2.664 0 1.472.78 2.664 1.743 2.664z"
        ></path>
</svg>