<svg xmlns="http://www.w3.org/2000/svg" viewBox="0 0 40 40">
<path
          d="M31.5 3h-23C6 3 4 5.1 4 7.7v24.7C4 34.9 6 37 8.5 37h23c2.5 0 4.5-2.1 4.5-4.7V7.7C36 5.1 34 3 31.5 3zM11.8 28.2c-1.1 0-2-.9-2-2.1 0-1.1.9-2.1 2-2.1s2 .9 2 2.1c0 1.2-.9 2.1-2 2.1zm0-6.1c-1.1 0-2-.9-2-2.1 0-1.1.9-2.1 2-2.1s2 .9 2 2.1c0 1.1-.9 2.1-2 2.1zm0-6.2c-1.1 0-2-.9-2-2.1 0-1.1.9-2.1 2-2.1s2 .9 2 2.1c0 1.2-.9 2.1-2 2.1zm5.1 11.9h13.5v-2.6H16.9v2.6zm0-6.5h13.5v-2.6H16.9v2.6zm0-6.6h13.5v-2.6H16.9v2.6z"
        ></path>
</svg>