<svg xmlns="http://www.w3.org/2000/svg" viewBox="0 0 46 46">
<path
          fill="#6ac20b"
          d="M15.433 30.568c9.342 9.342 17.708 12.15 18.871 12.316 1.163.167 3.07.542 5.837-2.225 3.24-3.24 3.566-4.94 1.783-6.724-1.783-1.783-6.212-4.48-7.416-5.176-1.206-.696-2.228-.472-3.097.133-.868.605-1.87 1.375-2.798 2.047-.927.671-2.087.955-3.332.167-1.245-.79-3.35-2.27-5.735-4.652-2.384-2.384-3.863-4.49-4.651-5.735-.789-1.245-.505-2.405.167-3.332.671-.928 1.441-1.93 2.046-2.798.605-.869.828-1.89.134-3.097-.696-1.204-3.394-5.633-5.177-7.416-1.783-1.783-3.484-1.457-6.724 1.783-2.766 2.766-2.391 4.674-2.226 5.837.167 1.164 2.976 9.53 12.318 18.872"
        ></path>
</svg>