<svg xmlns="http://www.w3.org/2000/svg" viewBox="0 0 1024 1024">
<path
          fill="#D0021B"
          fill-rule="evenodd"
          d="M512 0C230.326 0 0 230.326 0 512s230.573 512 512 512 512-230.326 512-512S793.674 0 512 0zM240.694 373.755l158.735-56.285 15.306 46.164L256 419.919l-15.306-46.164zm440.409 384.123c-10.122 0-20.49-10.122-25.674-20.49-10.122-10.122-61.47-25.674-148.366-25.674-86.896 0-138.245 15.306-148.366 25.674 0 10.122-10.122 20.49-25.674 20.49s-25.674-10.122-25.674-25.674c0-71.591 174.041-71.591 194.53-71.591 20.489 0 194.53 0 194.53 71.591 10.122 10.368 0 25.674-15.306 25.674zM768 419.919l-163.672-61.47 15.306-46.164 158.735 56.285-10.368 51.348-.001.001z"
        ></path>
</svg>