<svg xmlns="http://www.w3.org/2000/svg" viewBox="0 0 1024 1024">
<path
          fill="#7ED321"
          fill-rule="evenodd"
          d="M512 0C229.376 0 0 229.376 0 512s229.376 512 512 512 512-229.376 512-512S794.624 0 512 0zM247.808 402.432c0-36.864 39.936-93.184 93.184-93.184s93.184 56.32 93.184 93.184c0 11.264-9.216 20.48-20.48 20.48-11.264 0-20.48-9.216-20.48-20.48 0-16.384-24.576-52.224-52.224-52.224-27.648 0-52.224 35.84-52.224 52.224 0 11.264-9.216 20.48-20.48 20.48-11.264 0-20.48-9.216-20.48-20.48zM512 800.768c-132.096 0-239.616-96.256-239.616-215.04 0-11.264 9.216-20.48 20.48-20.48 11.264 0 20.48 9.216 20.48 20.48 0 96.256 89.088 174.08 198.656 174.08 109.568 0 198.656-77.824 198.656-174.08 0-11.264 9.216-20.48 20.48-20.48 11.264 0 20.48 9.216 20.48 20.48 0 117.76-107.52 215.04-239.616 215.04zm243.712-377.856c-11.264 0-20.48-9.216-20.48-20.48 0-17.408-24.576-52.224-52.224-52.224-28.672 0-52.224 34.816-52.224 52.224 0 11.264-9.216 20.48-20.48 20.48-11.264 0-20.48-9.216-20.48-20.48 0-36.864 39.936-93.184 93.184-93.184s93.184 56.32 93.184 93.184c0 11.264-9.216 20.48-20.48 20.48z"
        ></path>
</svg>