<svg xmlns="http://www.w3.org/2000/svg" viewBox="0 0 40 40">
<path d="M7 33.4c0 1.1.9 1.6 2 1.6h22c1.1 0 2-.5 2-1.6V31H7v2.4z"></path>
        <path
          d="M32.1 14.3c-.6 2.3-2.6 4-5.1 4-2.9 0-5.3-2.3-5.3-5.2v-.2c-.5.2-1 .3-1.6.3-.6 0-1.1-.1-1.7-.3v.2c0 2.9-2.4 5.2-5.3 5.2-2.5 0-4.6-1.7-5.1-4.1-.5.4-1.2.6-1.8.6-.3 0-.5.1-.8 0L7.2 29h26l1.7-14.2c-.3.1-.5.1-.8.1-.8 0-1.5-.2-2-.6z"
          class="st0"
        ></path>
        <ellipse cx="20.1" cy="8.2" rx="3.2" ry="3.2"></ellipse>
        <ellipse cx="6.4" cy="10.5" rx="2.4" ry="2.4"></ellipse>
        <ellipse cx="33.8" cy="10.5" rx="2.4" ry="2.4"></ellipse>
</svg>