<svg xmlns="http://www.w3.org/2000/svg" viewBox="0 0 72 72">
<g fill="none" fill-rule="evenodd">
          <path
            d="M36 72c19.882 0 36-16.118 36-36S55.882 0 36 0 0 16.118 0 36s16.118 36 36 36z"
            fill="#45C144"
          ></path>
          <path
            d="M29 40l-4-8c-.262-.292-.288-.398 0-1 .594-.228.743-.174 1 0l4 4c1.5 1.098 1.5 1.098 3 0l21-10c-3.668-4.964-10.11-8-17-8-12.33 0-22 8.12-22 18 0 5.6 2.91 10.518 7 14 1 .8 1.068.537 1 1 .068.185-.954 4.042-1 4-.027.316-.097.495 0 1-.097.075.225.4 1 0-.22.4 5-3 5-3 1.4.6 5.8 1 9 1 11.533 0 21.2-7.85 21-18 .2-2.899-.692-5.756-2-8L31 41c-1.5.5-2-1-2-1z"
            fill="#FFF"
          ></path>
        </g>
</svg>